<?xml version="1.0" encoding="utf-8"?>
<!-- Generator: Adobe Illustrator 16.0.0, SVG Export Plug-In . SVG Version: 6.00 Build 0)  -->
<!DOCTYPE svg PUBLIC "-//W3C//DTD SVG 1.1//EN" "http://www.w3.org/Graphics/SVG/1.1/DTD/svg11.dtd">
<svg version="1.1" id="Layer_1" xmlns="http://www.w3.org/2000/svg" xmlns:xlink="http://www.w3.org/1999/xlink" x="0px" y="0px"
	 width="50px" height="50px" viewBox="0 0 50 50" enable-background="new 0 0 50 50" xml:space="preserve">
<path fill="#022179" d="M25,3.124c-12.08,0-21.875,9.795-21.875,21.875c0,12.08,9.795,21.875,21.875,21.875
	c3.115,0,6.074-0.654,8.75-1.816c0.791-0.342,1.709,0.021,2.061,0.813c0.353,0.791-0.02,1.709-0.811,2.061
	C31.934,49.258,28.555,50,25,50C11.191,50,0,38.809,0,25C0,11.191,11.191,0,25,0S50,11.191,50,25c0,2.304-0.313,4.541-0.898,6.669
	c-0.233,0.83-1.094,1.316-1.924,1.094c-0.83-0.225-1.317-1.094-1.094-1.924c0.508-1.855,0.791-3.811,0.791-5.83
	C46.875,12.918,37.08,3.124,25,3.124z M31.279,30.955c0.137-0.732,0.781-1.27,1.533-1.27c2.715,0,6.914,1.299,10.42,3.574
	C46.729,35.516,50,39.051,50,43.748c0,3.445-2.803,6.25-6.25,6.25s-6.25-2.805-6.25-6.25c0-1.582-0.01-3.85-0.703-6.008
	c-0.674-2.1-1.973-4.014-4.561-5.049c-0.693-0.271-1.094-1.006-0.957-1.748V30.955L31.279,30.955z M38.701,34.354
	c0.459,0.791,0.811,1.611,1.074,2.441c0.858,2.656,0.858,5.361,0.858,6.914v0.049c0,1.729,1.396,3.125,3.125,3.125
	c1.729,0,3.125-1.396,3.125-3.125c0-3.115-2.196-5.83-5.342-7.871C40.625,35.291,39.658,34.783,38.701,34.354L38.701,34.354z
	 M30.176,41.971c-1.582-0.596-3.32-0.918-5.166-0.918c-1.836,0-3.584,0.332-5.166,0.918c-1.094,0.41-2.305,0.225-3.164-0.439
	c-0.438-0.342-0.819-0.84-0.977-1.475c-0.156-0.654-0.049-1.318,0.264-1.904c1.699-3.191,5.117-5.342,9.033-5.342
	s7.344,2.158,9.033,5.342c0.313,0.586,0.42,1.25,0.264,1.904c-0.156,0.635-0.537,1.133-0.977,1.475
	c-0.859,0.664-2.07,0.852-3.164,0.439H30.176z M25,35.936c-2.432,0-4.561,1.184-5.82,2.949c1.808-0.625,3.771-0.957,5.82-0.957
	s4.014,0.342,5.82,0.967C29.561,37.107,27.432,35.936,25,35.936z M37.813,23.28c0.518-0.693,1.494-0.83,2.188-0.313
	c0.693,0.517,0.83,1.494,0.313,2.188c-2.969,3.955-8.905,3.955-11.875,0c-0.518-0.693-0.381-1.67,0.313-2.188
	c0.694-0.519,1.67-0.381,2.188,0.313C32.656,25.574,36.094,25.574,37.813,23.28z M12.188,23.28c1.719,2.294,5.155,2.294,6.875,0
	c0.518-0.693,1.494-0.83,2.188-0.313c0.693,0.517,0.83,1.494,0.313,2.188c-2.969,3.955-8.905,3.955-11.875,0
	c-0.518-0.693-0.381-1.67,0.313-2.188C10.695,22.449,11.67,22.586,12.188,23.28z"/>
</svg>
